<svg xmlns="http://www.w3.org/2000/svg" xmlns:xlink="http://www.w3.org/1999/xlink" width="2528" height="730" viewBox="0 0 2528 730"><defs><path id="eaqta" d="M1872.432 1561c19.863-.27 67.325 46.845 79.957 59.499 26.296 26.342 49.407 56.138 64.231 93.945 33.081 84.368-3.318 166.925-41.21 219.776-9.015 12.573-19.816 23.552-29.558 35.3-10.132 12.22-54.02 56.787-69.064 59.5-17.373 3.131-24.095-17.267-15.347-27.9l14.21-10.817 25.011-21.921c32.277-26.891 62.493-69.32 80.148-110.742 7.837-18.389 19.6-50.222 15.631-78.573-1.794-12.82-2.215-24.583-5.4-35.585-12.198-42.143-39.626-81.993-69.347-106.756-10.61-9.014-21.754-18.031-32.363-27.045-5.4-3.985-11.332-7.972-16.731-11.957-56.35 33.405-108.852 89.232-120.58 167.679-8.805 58.889 27.166 119.69 50.02 150.597 7.863 9.109 15.728 18.22 23.59 27.33 7.144 11.646-2.359 28.193-16.768 25.621-13.388-2.389-30.105-28.644-37.516-39.001-30.613-42.78-67.428-114.058-48.885-191.308 16.55-68.946 58.351-114.43 106.864-151.45 12.707-9.698 27.393-21.86 43.107-26.192zm-302.027 138.473c35.125-.325 67.531 5.817 95.625 13.95 11.49 3.325 29.25 5.418 26.147 22.774-1.387 7.757-8.533 15.876-19.326 13.95l-25.864-7.402c-20.199-4.967-43.096-8.885-66.79-9.11l-11.084 26.191c-12.392 31.585-28.216 80.594-21.884 126.684 1.785 12.99 3.385 25.17 6.821 36.44l7.105 20.212c1.978 11.659-8.762 21.104-19.894 18.79-19.795-4.117-24.191-52.697-27.285-76.296-7.026-53.601 12.397-108.555 27.285-145.189 6.53-16.066 17.024-40.824 29.144-40.994zm607.647 7.57c19.008.48 25.2 24.363 30.99 38.147 16.469 39.206 35.706 98.61 27.274 156.86-15.946 110.16-86.57 158.221-177.917 192.731-22.34 8.44-47.262 13.786-73.042 18.79-9.407 1.825-24.197 5.071-31.831.284-10.443-6.548-8.693-24.116 1.705-29.322l21.6-3.416 44.905-9.68c51.655-14.85 106.79-38.687 136.99-74.871 15.615-18.71 29.685-38.233 37.8-64.624 14.973-48.692 3.786-111.573-11.368-151.736l-15.916-39.002c-34.312-.172-63.87 9.715-91.232 16.227-11.439 2.723-19.318-5.456-20.747-13.95-2.746-16.305 13.12-19.173 24.158-21.92 22.002-5.474 40.09-8.469 61.958-11.69 11.838-1.362 23.06-2.482 34.673-2.829zm-558.191 260.485c54.898-.795 92.598 15.25 126.758 35.3 49.129 28.837 93.748 66.791 129.317 109.319 28.376 33.929 55.247 66.436 90.663 93.376 60.309 45.876 140.288 73.89 220.832 25.906 28.218-16.81 53.401-39.97 73.611-64.908l25.011-32.453c-9.418-20.73-28.57-38.105-42.632-54.944l-17.905-17.081c-6.238-7.981-3.266-20.379 3.979-25.052 12.457-8.037 23.576 4.54 29.842 10.818 18.934 18.967 35.556 39.701 50.874 62.345 4.345 6.423 14.6 15.083 12.505 26.76-2.433 13.564-29.826 42.7-38.653 53.52-36.623 44.893-83.562 83.117-151.2 96.793-11.556 2.337-27.197 3.673-41.78 3.132-16.248-.604-29.386-2.534-42.63-6.263-90.905-25.597-144.052-85.65-196.96-149.174-28.841-34.63-64.726-65.256-102.031-91.384-33.55-23.496-93.063-53.754-152.338-39.286-25.08 6.122-45.391 17.187-63.095 30.746-23.915 18.316-44.035 42.632-60.253 68.608l-15.915 28.753c5.817 13.02 17.836 25.599 26.431 36.44 28.86 36.402 64.638 67.905 115.106 82.558 11.316 3.286 23.318 5.16 36.663 5.41 8.417.156 32.103-1.66 44.053-4.556 41.11-9.965 72.372-27.745 101.18-49.82l21.315-19.073c10.61-7.759 24.803-.321 26.716 10.533 3.065 17.39-39.555 44.09-50.874 51.243-41.528 26.242-106.35 57.788-177.348 40.994-28.002-6.623-51.064-17.11-72.19-30.46-34.049-21.518-59.646-51.655-86.979-83.286-8.889-10.286-18.236-20.89-19.884-36.282-1.289-12.03 24.268-51.4 30.126-59.783 29.177-41.753 63.207-77.85 114.253-97.646 10.536-4.087 22.241-6.88 34.39-9.11l19.042-1.993zM1475 1957c10.493 0 19 8.507 19 19s-8.507 19-19 19c-10.494 0-19-8.507-19-19 0-10.494 8.506-19 19-19zm799 0c10.493 0 19 8.507 19 19s-8.507 19-19 19c-10.494 0-19-8.507-19-19 0-10.494 8.506-19 19-19zm-180-318c10.493 0 19 8.506 19 19 0 10.493-8.507 19-19 19-10.494 0-19-8.507-19-19 0-10.494 8.506-19 19-19zm-439.25 0c10.493 0 19 8.506 19 19 0 10.493-8.507 19-19 19-10.494 0-19-8.507-19-19 0-10.494 8.506-19 19-19zM1873 2240c10.493 0 19 8.506 19 19 0 10.493-8.507 19-19 19-10.494 0-19-8.507-19-19 0-10.494 8.506-19 19-19z"/><path id="eaqtc" d="M2471.36 2176.825c2.625 0 5.32-1.446 8.091-4.335h.875l-1.968 6.844h-59.808v-.912a9.903 9.903 0 0 0 3.062-2.167c.874-.913 1.785-2.321 2.733-4.221l52.373-107.34h-36.738c-2.697 0-5.43 1.445-8.2 4.334h-.875l1.968-6.844h58.933v.912c-2.26.99-4.192 3.12-5.794 6.388l-52.373 107.34zm31.38-12.89c2.406-1.369 3.608-3.232 3.608-5.59V2091.5c0-2.356-1.202-4.22-3.608-5.59v-.912h48.874l1.968 6.844h-.875c-2.77-2.89-5.504-4.335-8.2-4.335h-28.646v27.834h17.712c2.843 0 4.92-1.293 6.233-3.879h.874v10.153h-.874c-1.386-2.51-3.463-3.765-6.233-3.765h-17.712v44.488h33.02c2.695 0 5.429-1.444 8.2-4.335h.875l-1.968 6.844h-53.248zm73.802 0c2.405-1.444 3.608-3.574 3.608-6.388v-65.249c0-2.812-1.203-4.942-3.608-6.388v-.912h16.51v.912c-2.406 1.37-3.608 3.5-3.608 6.388v65.249c0 2.89 1.202 5.02 3.608 6.388v.912h-16.51zm92.608-72.093h-.875c-2.77-2.89-5.504-4.334-8.2-4.334h-14.323v70.039c0 2.89 1.202 5.02 3.608 6.388v.912h-16.729v-.912c2.405-1.444 3.608-3.574 3.608-6.388v-70.04h-14.432c-1.531 0-3.026.457-4.483 1.37-1.46.912-2.698 1.901-3.718 2.965h-.874l1.968-6.844h52.482zm57.182 70.496c1.531 0 3.024-.456 4.483-1.369 1.458-.913 2.66-1.9 3.608-2.966h.875l-1.968 6.844h-45.594v-.912c2.405-1.369 3.608-3.497 3.608-6.388v-65.249c0-2.889-1.203-5.019-3.608-6.388v-.912h16.729v.912c-2.406 1.446-3.608 3.576-3.608 6.388v70.04zm56.966-78.367c8.31 0 15.433 1.845 21.375 5.533 5.94 3.69 10.404 8.632 13.394 14.829 2.988 6.199 4.483 13.1 4.483 20.704 0 7.454-1.53 14.278-4.592 20.475-3.062 6.2-7.563 11.142-13.503 14.83-5.942 3.69-12.995 5.532-21.157 5.532-8.31 0-15.436-1.825-21.376-5.475-5.942-3.65-10.406-8.573-13.394-14.773-2.99-6.197-4.483-13.06-4.483-20.59 0-7.603 1.494-14.504 4.483-20.703 2.988-6.197 7.452-11.14 13.394-14.83 5.94-3.687 13.066-5.532 21.376-5.532zm0 79.393c6.123 0 11.352-1.71 15.69-5.133 4.336-3.422 7.616-8.042 9.84-13.86 2.223-5.817 3.335-12.262 3.335-19.334 0-7.148-1.112-13.632-3.335-19.45-2.224-5.817-5.504-10.455-9.84-13.916-4.338-3.46-9.567-5.19-15.69-5.19-6.123 0-11.354 1.73-15.69 5.19-4.338 3.461-7.618 8.1-9.84 13.917-2.225 5.817-3.335 12.301-3.335 19.449 0 7.072 1.11 13.517 3.334 19.335 2.223 5.817 5.503 10.437 9.84 13.86 4.337 3.421 9.568 5.132 15.69 5.132zm65.056-61.598c0 2.435.71 4.583 2.132 6.445 1.421 1.865 3.188 3.442 5.303 4.734 2.113 1.294 5.03 2.852 8.747 4.677 4.737 2.281 8.583 4.374 11.535 6.274 2.952 1.902 5.467 4.449 7.544 7.643 2.078 3.194 3.116 7.072 3.116 11.635 0 4.032-.967 7.776-2.897 11.236-1.932 3.461-4.647 6.236-8.146 8.327-3.499 2.093-7.473 3.137-11.918 3.137-5.685 0-10.168-.798-13.448-2.395-3.28-1.597-6.342-3.725-9.185-6.388v-9.24h.766c1.457 2.738 2.86 5.058 4.21 6.958 1.347 1.902 3.534 3.804 6.56 5.704 3.023 1.901 6.724 2.851 11.097 2.851 5.03 0 9.002-1.425 11.918-4.277 2.915-2.852 4.374-6.825 4.374-11.92 0-2.662-.73-4.98-2.187-6.959-1.46-1.976-3.28-3.668-5.467-5.076-2.187-1.406-5.177-3.098-8.966-5.076-4.592-2.357-8.328-4.506-11.207-6.445-2.88-1.94-5.321-4.467-7.325-7.586-2.006-3.117-3.007-6.919-3.007-11.407 0-4.03.875-7.603 2.624-10.723 1.75-3.117 4.19-5.55 7.325-7.3 3.134-1.749 6.742-2.624 10.825-2.624 2.624 0 5.557.496 8.802 1.483 3.242.99 6.213 2.32 8.91 3.993v9.125h-.765c-1.53-3.194-3.827-6.026-6.888-8.498-3.061-2.47-6.56-3.707-10.496-3.707-4.155 0-7.509 1.445-10.06 4.334-2.552 2.891-3.826 6.58-3.826 11.065zm56.965 62.169c2.405-1.369 3.608-3.232 3.608-5.59V2091.5c0-2.356-1.203-4.22-3.608-5.59v-.912h48.874l1.968 6.844h-.875c-2.77-2.89-5.505-4.335-8.2-4.335h-28.647v27.834h17.713c2.843 0 4.92-1.293 6.232-3.879h.875v10.153h-.875c-1.385-2.51-3.463-3.765-6.232-3.765h-17.713v44.488h33.02c2.696 0 5.43-1.444 8.2-4.335h.875l-1.968 6.844h-53.247zm163.566-107.34c4.52 0 8.546.912 12.083 2.737 3.534 1.825 6.14 3.764 7.817 5.818v11.977h-.875c-.51-3.194-1.695-6.178-3.553-8.955-1.859-2.775-4.155-5-6.888-6.673-2.734-1.672-5.631-2.51-8.693-2.51-6.56 0-11.463 1.865-14.706 5.59-3.244 3.727-4.865 8.327-4.865 13.803 0 3.727.984 7.168 2.952 10.323 1.968 3.157 4.428 6.008 7.38 8.555 2.952 2.55 7.053 5.724 12.3 9.525 7.436 5.476 13.504 10.4 18.205 14.773 4.702 4.373 8.729 9.886 12.082 16.54 3.352 6.655 5.03 14.392 5.03 23.213 0 7.832-1.787 15.115-5.358 21.845-3.572 6.73-8.637 12.091-15.198 16.084-6.56 3.992-14.104 5.989-22.633 5.989-7.435 0-13.94-1.654-19.516-4.962-5.577-3.308-9.84-7.663-12.793-13.062-2.952-5.4-4.428-11.179-4.428-17.338 0-5.932 1.148-11.197 3.444-15.8 2.296-4.6 5.484-8.173 9.567-10.722 4.081-2.547 8.747-3.821 13.995-3.821 4.446 0 8.382 1.046 11.809 3.137 3.425 2.092 6.085 4.905 7.982 8.44 1.894 3.537 2.842 7.358 2.842 11.465 0 4.638-1.513 8.84-4.537 12.605-3.026 3.764-6.724 6.406-11.098 7.928l-.328-.799c3.28-1.673 5.94-4.145 7.981-7.414 2.04-3.27 3.062-7.263 3.062-11.978 0-2.889-.784-5.59-2.35-8.099-1.569-2.51-3.701-4.505-6.397-5.989-2.698-1.482-5.686-2.224-8.966-2.224-3.28 0-6.56.818-9.84 2.453-3.28 1.636-5.996 4.163-8.146 7.585-2.15 3.422-3.225 7.682-3.225 12.776 0 6.463 1.384 12.186 4.155 17.168 2.769 4.98 6.505 8.84 11.207 11.578 4.701 2.738 9.93 4.107 15.69 4.107 6.924 0 13.01-1.75 18.26-5.247 5.248-3.5 9.293-8.176 12.136-14.031 2.843-5.857 4.264-12.245 4.264-19.164 0-7.073-1.367-13.25-4.1-18.537-2.734-5.284-6.068-9.733-10.005-13.346-3.936-3.611-9.184-7.814-15.745-12.605-5.758-4.181-10.332-7.757-13.721-10.722-3.39-2.966-6.215-6.483-8.474-10.552-2.26-4.067-3.39-8.687-3.39-13.86 0-7.985 2.114-14.581 6.342-19.791 4.227-5.208 10.642-7.814 19.243-7.814zm91.844 109.28c-8.31 0-15.435-1.826-21.375-5.476-5.942-3.65-10.425-8.573-13.45-14.773-3.025-6.197-4.537-13.06-4.537-20.59 0-7.603 1.512-14.504 4.538-20.703 3.024-6.197 7.507-11.14 13.449-14.83 5.94-3.687 13.065-5.532 21.375-5.532 4.445 0 9.31.78 14.596 2.339 5.285 1.56 9.057 3.1 11.317 4.62v8.555h-.875c-.584-1.141-1.95-2.738-4.1-4.791-2.15-2.053-5.03-3.935-8.637-5.647-3.609-1.71-7.709-2.566-12.3-2.566-6.124 0-11.372 1.73-15.746 5.19-4.373 3.461-7.672 8.119-9.895 13.974-2.224 5.856-3.335 12.32-3.335 19.392 0 7.072 1.111 13.5 3.335 19.278 2.223 5.78 5.522 10.4 9.895 13.86 4.374 3.46 9.622 5.19 15.745 5.19 4.445 0 8.436-.703 11.972-2.11 3.535-1.407 6.397-3.099 8.583-5.077 2.187-1.977 3.718-3.916 4.593-5.817h.874v8.555c-2.115 1.445-5.959 2.966-11.535 4.563-5.576 1.597-10.406 2.395-14.487 2.395zm45.703-1.94c2.406-1.369 3.608-3.497 3.608-6.388v-65.249c0-2.889-1.202-5.019-3.608-6.388v-.912h16.729v.912c-2.406 1.446-3.608 3.576-3.608 6.388v27.605h35.207v-27.605c0-2.812-1.203-4.942-3.609-6.388v-.912h16.729v.912c-2.405 1.37-3.608 3.5-3.608 6.388v65.249c0 2.89 1.203 5.02 3.608 6.388v.912h-16.729v-.912c2.406-1.444 3.609-3.574 3.609-6.388v-35.134h-35.207v35.134c0 2.814 1.202 4.944 3.608 6.388v.912h-16.729zm119.287-79.964c8.31 0 15.434 1.845 21.376 5.533 5.94 3.69 10.404 8.632 13.394 14.829 2.988 6.199 4.483 13.1 4.483 20.704 0 7.454-1.531 14.278-4.592 20.475-3.062 6.2-7.564 11.142-13.504 14.83-5.942 3.69-12.994 5.532-21.157 5.532-8.31 0-15.435-1.825-21.375-5.475-5.942-3.65-10.406-8.573-13.394-14.773-2.99-6.197-4.483-13.06-4.483-20.59 0-7.603 1.493-14.504 4.483-20.703 2.988-6.197 7.452-11.14 13.394-14.83 5.94-3.687 13.066-5.532 21.375-5.532zm0 79.393c6.124 0 11.353-1.71 15.69-5.133 4.336-3.422 7.617-8.042 9.84-13.86 2.224-5.817 3.336-12.262 3.336-19.334 0-7.148-1.112-13.632-3.335-19.45-2.224-5.817-5.505-10.455-9.84-13.916-4.338-3.46-9.567-5.19-15.69-5.19-6.123 0-11.354 1.73-15.69 5.19-4.338 3.461-7.618 8.1-9.841 13.917-2.224 5.817-3.335 12.301-3.335 19.449 0 7.072 1.11 13.517 3.335 19.335 2.223 5.817 5.503 10.437 9.84 13.86 4.337 3.421 9.568 5.132 15.69 5.132zm-10.277-87.15c-1.53 0-2.771-.493-3.718-1.482-.948-.988-1.421-2.282-1.421-3.879 0-1.672.473-3.003 1.421-3.992.947-.988 2.187-1.483 3.718-1.483 1.602 0 2.878.495 3.827 1.483.946.989 1.421 2.32 1.421 3.992 0 1.597-.475 2.891-1.421 3.879-.949.989-2.225 1.482-3.827 1.482zm20.555 0c-1.604 0-2.88-.493-3.827-1.482-.948-.988-1.421-2.282-1.421-3.879 0-1.672.473-3.003 1.421-3.992.947-.988 2.223-1.483 3.827-1.483 1.53 0 2.77.495 3.718 1.483.946.989 1.421 2.32 1.421 3.992 0 1.597-.475 2.891-1.421 3.879-.948.989-2.187 1.482-3.718 1.482zm107.698 9.696c-2.405 1.37-3.608 3.5-3.608 6.388v65.249c0 2.89 1.203 5.02 3.608 6.388v.912h-10.168v-.912c2.405-1.444 3.608-3.574 3.608-6.388v-19.848l-47.016-41.75v61.598c0 2.814 1.203 4.944 3.609 6.388v.912h-10.169v-.912c2.406-1.444 3.608-3.574 3.608-6.388v-65.249c0-2.812-1.202-4.942-3.608-6.388v-.912h10.06l43.516 38.442v-31.142c0-2.812-1.203-4.942-3.608-6.388v-.912h10.168zm19.68 78.025c2.405-1.369 3.608-3.497 3.608-6.388v-65.249c0-2.889-1.203-5.019-3.609-6.388v-.912h16.73v.912c-2.406 1.446-3.609 3.576-3.609 6.388v27.605h35.207v-27.605c0-2.812-1.203-4.942-3.608-6.388v-.912h16.728v.912c-2.405 1.37-3.608 3.5-3.608 6.388v65.249c0 2.89 1.203 5.02 3.608 6.388v.912h-16.728v-.912c2.405-1.444 3.608-3.574 3.608-6.388v-35.134h-35.207v35.134c0 2.814 1.203 4.944 3.608 6.388v.912h-16.729zm81.128 0c2.406-1.369 3.608-3.232 3.608-5.59V2091.5c0-2.356-1.202-4.22-3.608-5.59v-.912h48.874l1.968 6.844h-.874c-2.771-2.89-5.505-4.335-8.2-4.335h-28.647v27.834h17.712c2.843 0 4.92-1.293 6.233-3.879h.874v10.153h-.874c-1.386-2.51-3.463-3.765-6.233-3.765h-17.712v44.488h33.02c2.695 0 5.43-1.444 8.2-4.335h.875l-1.968 6.844h-53.248zm73.802 0c2.405-1.444 3.608-3.574 3.608-6.388v-65.249c0-2.812-1.203-4.942-3.608-6.388v-.912h16.51v.912c-2.406 1.37-3.608 3.5-3.608 6.388v65.249c0 2.89 1.202 5.02 3.608 6.388v.912h-16.51zm92.608-72.093h-.875c-2.77-2.89-5.504-4.334-8.2-4.334h-14.323v70.039c0 2.89 1.202 5.02 3.608 6.388v.912h-16.73v-.912c2.406-1.444 3.61-3.574 3.61-6.388v-70.04h-14.433c-1.531 0-3.026.457-4.483 1.37-1.46.912-2.698 1.901-3.718 2.965h-.875l1.968-6.844h52.483z"/><path id="eaqte" d="M2565.875 1985.103c-17.638 0-35.275.982-52.913 2.946-106.479 12.77-163.638 56.318-148.614 67.123-6.859 0-23.19-11.46-24.823-25.867-1.633-17.353 36.255-34.38 79.043-45.512 28.09-19.646 62.712-59.592 90.475-92.008-13.065 1.638-25.804 2.62-38.542 2.62-56.179 0-101.906-22.92-105.5-52.716-.653-4.257 3.267-12.442 7.84-18.009 9.472-11.132 24.823-11.787 27.11-10.478-5.88 1.965-12.739 7.531-13.065 13.425-.98 22.265 37.888 53.043 98.313 53.043 5.88 0 12.085-.327 18.618-.982 5.879-.655 11.431-1.31 17.31-2.292 64.019-80.547 132.936-185.652 191.401-186.962 18.618-.327 33.316 11.133 30.703 32.089-5.879 56.317-93.74 133.263-195.32 161.75-31.03 36.999-67.611 75.308-94.068 92.989 16.331-2.947 32.663-4.911 46.707-5.566 7.513-.328 15.025-.655 23.19-.655 70.878 0 162.332 15.389 194.014 40.928-36.581-15.061-92.76-25.866-151.879-25.866zm-3.593-119.185c105.173-35.362 166.251-127.696 163.312-155.528-.98-8.513-5.88-14.407-14.372-11.787-26.783 8.185-86.228 91.68-148.94 167.315zm186.504 13.425c-32.989 33.725-76.756 80.875-96.353 84.804h-2.614c-5.226 0-15.35-8.84-15.35-16.699 0-14.08 17.964-47.15 36.58-73.016 11.433-16.044 25.15-31.76 33.317-38.31 1.633-1.637 3.592-1.964 4.572-1.964 7.84 0 20.577 12.77 20.577 21.283 0 1.31-1.306-.328-4.246-.655-4.9-.655-18.617 16.371-29.722 30.778-16.658 21.938-32.99 50.424-32.99 59.92 15.679-6.549 48.994-36.017 64.672-51.08 16.984-16.698 41.154-45.184 59.772-59.591 1.633-1.31 3.266-1.637 4.573-1.637 7.839 0 20.25 12.77 20.25 20.955 0 1.31-.98-.327-3.92-.655-2.285 0-6.532 2.947-10.778 7.531-4.899 5.239-14.044 17.026-24.823 31.433-16.331 21.938-28.416 45.185-28.416 54.353 20.577-6.22 66.958-50.751 86.881-69.742 1.96-1.637 3.593.982 2.613 1.965-28.416 31.105-81.655 85.786-101.253 85.786-1.633 0-3.592-.655-5.226-1.965-5.226-2.62-11.758-10.15-11.758-16.044 0-3.274 1.96-9.168 3.593-14.079 5.552-15.062 17.964-38.31 30.05-53.37zm71.53 31.433c5.553-4.256 11.759-8.513 17.638-12.442-1.96-6.221-2.94-14.734-2.94-22.593 0-7.203.653-14.079 1.633-18.335 3.267-12.443 14.698-16.7 22.537-19.974 2.94-.982 8.493-2.62 9.8-.982-.654.655-.98.982-2.614 3.602-3.92 7.858-6.533 21.61-6.533 32.415 0 3.93.654 7.858 1.307 10.478 31.356-21.283 79.696-48.46 103.866-58.282 2.286-.983 2.286.654.653 1.637-38.214 22.592-75.123 52.06-100.6 72.361 8.166 38.964 45.728 98.229 88.842 98.229 4.9 0 9.472 0 13.391-.655.98-.327 2.287 0 .327.655-5.879 2.292-12.738 3.274-19.27 3.274-41.482 0-84.27-38.964-103.867-85.131-17.964 13.752-30.049 24.23-37.888 34.707-6.86 8.513-7.186 14.407-2.286 15.062-4.573 2.62-16.658 2.292-22.537-6.549-.98-1.31-1.633-2.946-1.633-4.584 0-9.823 15.024-24.557 40.174-42.893zm150.572-33.07c0-8.513 39.521-10.478 59.118-10.478 27.763 0 70.224 8.186 70.224 12.115 0 .327 0 .982-.653.982-56.18 0-109.745 15.39-115.951 15.39-7.512 0-12.738-11.46-12.738-18.01zm380.19-52.389c54.546-18.008 140.121-59.592 145.02-85.458 4.246-23.903-43.44-33.398-60.751-34.38-72.51-4.584-179.316 52.388-180.95 85.131-.653 6.876 1.634 14.08 11.106 16.044 0 .327-3.266 1.637-7.186 1.637-15.678 0-25.476-9.823-23.517-25.867 4.246-35.69 77.083-88.405 177.03-88.405 5.879 0 11.758.327 17.964.654 34.949 2.292 81.33 18.664 79.043 56.973-2.613 45.513-81.982 69.087-105.173 74.326 1.633-.327 6.206 0 11.106.328 28.089 2.292 75.776 14.734 74.47 49.441-2.614 86.769-235.496 158.803-335.769 158.803-6.532 0-12.738-.327-18.29-.982-26.457-3.274-46.381-13.425-44.748-37.982 2.613-45.84 111.378-97.573 135.549-100.848.326.328 0 .328-2.287 1.31-34.622 16.044-119.87 65.158-122.157 100.193-.653 12.115 23.517 14.08 32.336 14.734 3.92.328 8.165.328 12.411.328 108.44 0 318.784-89.716 323.684-146.688 1.633-21.938-36.909-29.141-60.752-30.778-4.246-.328-8.166-.328-12.412-.328-19.597 0-39.195 2.947-60.098 7.858-18.618 21.283-65.978 73.672-65.978 85.132 0 .982 1.306 1.637 2.613 1.637 4.899.327 17.964-4.257 21.557-5.894-6.206 5.894-21.557 16.044-28.416 16.044-5.553 0-10.452-2.62-10.126-11.132.654-27.177 85.575-146.033 142.081-186.635 5.88-3.929 10.779-5.566 13.392-5.238 18.617 1.637 30.049 21.61 24.496 17.353-3.592-1.964-9.145 0-15.024 3.93-24.497 17.68-46.707 42.892-70.224 68.76zm270.776 13.425c-59.118 0-127.383 110.343-109.092 118.202 18.291 7.53 64.998-44.858 86.882-78.256-1.633-2.947-4.9-12.77-3.593-16.044.98-3.274 10.778-13.097 15.025-13.424 3.266-.328 6.859 2.292 7.512 3.274 6.206 10.15 14.045 17.681 27.11 16.699 15.001-1.347 25.398-7.771 31.611-11.573 23.44-15.102 44.276-24.444 62.782-24.444 6.205 0 11.431 2.292 14.371 5.566 20.25-31.433 40.501-58.61 56.506-80.547 10.125-12.77 19.27-23.248 27.11-29.796 4.899-3.93 9.145-6.549 12.085-6.549 18.29-.982 31.355 18.009 25.476 14.407-11.105-5.239-32.989 25.54-46.707 43.22-14.371 18.009-27.763 37.327-43.767 61.23-28.743 43.22-54.873 86.44-63.039 107.069 13.36-1.011 50.644-34.586 73.576-56.032a350.839 350.839 0 0 1 11.675-17.312c11.105-16.044 24.497-30.779 32.663-37.327 1.633-1.637 3.592-1.965 4.572-1.965 7.84 0 20.25 12.77 20.25 21.283 0 1.31-.979-.327-3.592-.655-5.226-.655-18.618 15.062-29.723 29.796-16.657 21.61-32.662 50.424-32.662 59.92 15.678-6.549 48.993-36.017 64.345-51.08 17.31-16.698 42.787-44.857 60.752-59.264 1.96-1.637 3.266-1.964 4.899-1.964 7.512 0 20.25 13.097 20.25 21.283 0 1.31-1.306-.328-3.592-.655-2.614-.328-6.86 2.62-11.432 7.53-13.718 14.407-27.11 32.089-41.481 49.77-25.477 31.76-77.41 125.077-96.68 161.422 25.803-35.69 73.163-79.238 82.635-82.185 1.633 0 1.633 1.965 1.633 1.965-46.707 37.327-89.821 106.087-93.414 121.803-.653.655-1.96.983-3.593.983-13.065 1.31-17.964-16.7-16.984-22.593.98-9.823 7.839-24.23 13.718-37.982 16.984-37.326 61.405-124.095 107.459-177.139-32.99 33.726-79.043 82.84-98.64 86.77h-2.613c-5.226 0-15.352-8.841-15.352-16.7 0-8.067 5.898-22.369 14.437-37.978-23.074 23.523-51.99 50.848-64.085 54.677-3.92 1.31-7.513.328-10.78-1.31-5.225-2.946-12.41-9.822-12.41-17.026 0-6.549 7.185-23.575 23.19-53.043-11.432 9.168-78.716 72.034-95.7 72.034-5.88 0-16.332-14.734-16.332-22.265 0-14.372 19.423-44.754 45.287-67.756-.61.219-1.225.43-1.845.633-7.186 2.292-14.045 2.947-19.27 2.947-4.9 0-8.166-.655-9.8-1.31-8.818 43.548-76.43 90.698-111.051 88.733-15.025-.982-24.824-13.424-24.824-25.867 0-53.37 71.53-106.741 123.137-106.741 12.412 0 17.638 3.601 19.924 5.566 1.633.982.653.982-.653.982-3.266-.327-5.88-.982-8.166-.982zm129.668 4.584c-4.246-1.31-9.145-1.31-13.718 0-13.718 3.602-35.275 20.3-53.24 37.982-29.395 27.831-51.279 62.211-48.666 63.848 3.92 2.292 56.18-34.052 94.394-67.45z"/><linearGradient id="eaqtb" x1="1422" x2="2323" y1="1925.8" y2="1926" gradientUnits="userSpaceOnUse"><stop offset="0" stop-color="#f3b360"/><stop offset=".5" stop-color="#edd8a4"/><stop offset="1" stop-color="#e6a94e"/></linearGradient><linearGradient id="eaqtd" x1="3710.55" x2="2418.55" y1="2130.59" y2="2131.23" gradientUnits="userSpaceOnUse"><stop offset="0" stop-color="#af88ff"/><stop offset="1" stop-color="#f5bb5d"/></linearGradient><linearGradient id="eaqtf" x1="3949.47" x2="2339.47" y1="1902.43" y2="1902.16" gradientUnits="userSpaceOnUse"><stop offset="0" stop-color="#af88ff"/><stop offset="1" stop-color="#f5bb5d"/></linearGradient></defs><g><g transform="translate(-1422 -1561)"><use fill="url(#eaqtb)" xlink:href="#eaqta"/><use fill="#f4ba60" xlink:href="#eaqta"/></g><g transform="translate(-1422 -1561)"><use fill="#a14bff" xlink:href="#eaqtc"/><use fill="url(#eaqtd)" xlink:href="#eaqtc"/></g><g transform="translate(-1422 -1561)"><use fill="#a14bff" xlink:href="#eaqte"/><use fill="url(#eaqtf)" xlink:href="#eaqte"/></g></g></svg>